<svg xmlns="http://www.w3.org/2000/svg" viewBox="0 0 79 73.75" x="0px" y="0px"><g data-name="Layer 2"><g data-name="Layer 1"><path d="M29,16V1.5A1.51,1.51,0,0,0,28.07.11a1.5,1.5,0,0,0-1.63.33l-26,26a1.49,1.49,0,0,0,0,2.12l26,26A1.5,1.5,0,0,0,29,53.5V38h1.18c11.31-.13,25.38-.3,46.26,20.58A1.49,1.49,0,0,0,77.5,59a1.56,1.56,0,0,0,.63-.14A1.5,1.5,0,0,0,79,57.37C75.9,21.27,44.13,16.31,29,16Zm4.11,19-3,0L27.5,35A1.5,1.5,0,0,0,26,36.5V49.88L3.62,27.5,26,5.12V17.5A1.5,1.5,0,0,0,27.5,19c35.74,0,45.56,20,48,34.46C57.1,36.29,43.88,35,33.11,35Z"/></g></g><text x="0" y="74" fill="#000000" font-size="5px" font-weight="bold" font-family="'Helvetica Neue', Helvetica, Arial-Unicode, Arial, Sans-serif">Created by Kayla Valencia</text><text x="0" y="79" fill="#000000" font-size="5px" font-weight="bold" font-family="'Helvetica Neue', Helvetica, Arial-Unicode, Arial, Sans-serif">from the Noun Project</text></svg>